# xmcd
#
# Track frame offsets:
#	150
#	15957
#	29615
#	44952
#	57620
#	73862
#	89330
#	108832
#	121350
#	137072
#
# Disc length: 2019 seconds
#
# Revision: 2
# Processed by: cddbd v1.5.2PL0 Copyright (c) Steve Scherf et al.
# Submitted via: EZCDAudioConverter 6.0.8.1
#
DISCID=9107e10a
DTITLE=Oak Ridge Boys - Step On Out
DYEAR=1995
DGENRE=Country
TTITLE0=Touch A Hand, Make A Friend
TTITLE1=Ophelia
TTITLE2=Love Is Everywhere
TTITLE3=Only One I Love
TTITLE4=Roll Tennessee River
TTITLE5=Little Things
TTITLE6=Class Reunion
TTITLE7=Staying Afloat
TTITLE8=Come On In (You Did The Best You Could)
TTITLE9=Step On Out
EXTD=
EXTT0=
EXTT1=
EXTT2=
EXTT3=
EXTT4=
EXTT5=
EXTT6=
EXTT7=
EXTT8=
EXTT9=
PLAYORDER=
